<svg width="260" height="37" viewBox="0 0 260 37" fill="none" xmlns="http://www.w3.org/2000/svg">
<path d="M27.4971 18.1465L27.3076 18.0986C27.137 18.0556 26.9666 18.0121 26.791 17.9678C26.4567 17.8424 26.3146 17.7881 26.1885 17.7129C26.0605 17.6365 25.9449 17.5362 25.6689 17.2949L25.666 17.292C24.9101 16.6517 23.9787 16.3494 23.0273 16.208C22.0778 16.067 21.0852 16.0831 20.1992 16.0967C19.9965 16.0961 19.7938 16.0963 19.585 16.0957H19.582C18.4749 16.1032 17.4791 16.2022 16.4004 16.4629C15.6431 16.6122 14.8841 16.6003 14.0771 16.5928H14.0732C13.9103 16.5943 13.7469 16.5951 13.5791 16.5967C12.5009 16.5932 11.659 16.4305 10.6914 15.9834C10.2699 15.5089 10.241 15.0038 10.252 14.2988C10.3424 13.485 10.474 12.8731 10.9424 12.252C11.572 11.823 12.052 11.6309 12.8096 11.6309H13.0596V11.1797C15.3687 10.4924 17.5035 10.2668 19.9414 10.2529C20.0947 10.252 20.2484 10.251 20.4062 10.25C22.4363 10.2558 24.2215 10.4601 26.126 11.1094L26.1289 11.1104C26.3096 11.1691 26.4906 11.2275 26.6768 11.2881C28.2465 11.8079 29.4577 12.4148 30.6953 13.457L30.6982 13.459C30.875 13.6034 30.8758 13.6039 31.0547 13.75V13.751C32.9274 15.3102 34.0047 17.0121 34.8848 19.2422V19.2432C34.936 19.3727 34.9872 19.5023 35.04 19.6357V19.6367C36.2026 22.6834 35.8482 26.0954 34.6133 29.0977C34.3792 29.5645 34.0566 29.9345 33.6777 30.3545L33.6602 30.375L33.6465 30.3984C33.5612 30.5485 33.4764 30.6992 33.3887 30.8535C32.9582 31.4928 32.4151 31.9372 31.7764 32.4551L31.7754 32.4561C31.5883 32.6093 31.5872 32.6093 31.3975 32.7646C30.4999 33.4854 29.5941 34.0577 28.5439 34.5498L28.5303 34.5566L28.5176 34.5645C28.2747 34.7167 28.2698 34.7202 28.0322 34.8691C26.5234 35.6693 25.0919 35.7724 23.3398 35.7471H22.6836C20.1428 35.7306 17.6249 35.15 15.4658 33.8594V33.4043L15.2568 33.3691C15.1472 33.3507 15.0375 33.3324 14.9248 33.3135C13.9338 33.0139 13.1813 32.1921 12.6387 31.3008C12.3651 30.3517 12.274 29.6217 12.6865 28.7549C12.8335 28.5711 12.8414 28.5628 13.0049 28.3584L13.0068 28.3555C13.0853 28.2546 13.1628 28.1531 13.2432 28.0498C13.6044 27.8013 14.0818 27.6726 14.6055 27.625C15.1307 27.5773 15.6815 27.6128 16.1641 27.6738C16.7246 27.8585 17.2526 28.1017 17.7871 28.3643L18.333 28.6357L18.7393 28.8369C18.9094 28.9251 18.9108 28.9262 19.0869 29.0176L19.0957 29.0225L19.1045 29.0264C21.3749 29.9877 24.1724 29.9165 26.4531 29.0693L26.4668 29.0645L26.4805 29.0576C27.239 28.668 27.5839 28.2468 28.0322 27.6006C28.2145 27.4558 28.225 27.4487 28.4297 27.2861L28.4482 27.2715L28.4639 27.2539C29.4335 26.1318 29.6064 24.5973 29.5605 23.2529V23.2412L29.5586 23.2305L29.5127 22.9268C29.4244 22.428 29.2777 21.962 29.1025 21.502L28.8809 20.9512C28.8338 20.8278 28.7867 20.7043 28.7383 20.5771L28.7363 20.5723C28.4326 19.8161 28.0595 19.348 27.4971 18.8145V18.1465Z" fill="#E8F0FF"/>
<path d="M27.4971 18.1465L27.3076 18.0986C27.137 18.0556 26.9666 18.0121 26.791 17.9678C26.4567 17.8424 26.3146 17.7881 26.1885 17.7129C26.0605 17.6365 25.9449 17.5362 25.6689 17.2949L25.666 17.292C24.9101 16.6517 23.9787 16.3494 23.0273 16.208C22.0778 16.067 21.0852 16.0831 20.1992 16.0967C19.9965 16.0961 19.7938 16.0963 19.585 16.0957H19.582C18.4749 16.1032 17.4791 16.2022 16.4004 16.4629C15.6431 16.6122 14.8841 16.6003 14.0771 16.5928H14.0732C13.9103 16.5943 13.7469 16.5951 13.5791 16.5967C12.5009 16.5932 11.659 16.4305 10.6914 15.9834C10.2699 15.5089 10.241 15.0038 10.252 14.2988C10.3424 13.485 10.474 12.8731 10.9424 12.252C11.572 11.823 12.052 11.6309 12.8096 11.6309H13.0596V11.1797C15.3687 10.4924 17.5035 10.2668 19.9414 10.2529C20.0947 10.252 20.2484 10.251 20.4062 10.25C22.4363 10.2558 24.2215 10.4601 26.126 11.1094L26.1289 11.1104C26.3096 11.1691 26.4906 11.2275 26.6768 11.2881C28.2465 11.8079 29.4577 12.4148 30.6953 13.457L30.6982 13.459C30.875 13.6034 30.8758 13.6039 31.0547 13.75V13.751C32.9274 15.3102 34.0047 17.0121 34.8848 19.2422V19.2432C34.936 19.3727 34.9872 19.5023 35.04 19.6357V19.6367C36.2026 22.6834 35.8482 26.0954 34.6133 29.0977C34.3792 29.5645 34.0566 29.9345 33.6777 30.3545L33.6602 30.375L33.6465 30.3984C33.5612 30.5485 33.4764 30.6992 33.3887 30.8535C32.9582 31.4928 32.4151 31.9372 31.7764 32.4551L31.7754 32.4561C31.5883 32.6093 31.5872 32.6093 31.3975 32.7646C30.4999 33.4854 29.5941 34.0577 28.5439 34.5498L28.5303 34.5566L28.5176 34.5645C28.2747 34.7167 28.2698 34.7202 28.0322 34.8691C26.5234 35.6693 25.0919 35.7724 23.3398 35.7471H22.6836C20.1428 35.7306 17.6249 35.15 15.4658 33.8594V33.4043L15.2568 33.3691C15.1472 33.3507 15.0375 33.3324 14.9248 33.3135C13.9338 33.0139 13.1813 32.1921 12.6387 31.3008C12.3651 30.3517 12.274 29.6217 12.6865 28.7549C12.8335 28.5711 12.8414 28.5628 13.0049 28.3584L13.0068 28.3555C13.0853 28.2546 13.1628 28.1531 13.2432 28.0498C13.6044 27.8013 14.0818 27.6726 14.6055 27.625C15.1307 27.5773 15.6815 27.6128 16.1641 27.6738C16.7246 27.8585 17.2526 28.1017 17.7871 28.3643L18.333 28.6357L18.7393 28.8369C18.9094 28.9251 18.9108 28.9262 19.0869 29.0176L19.0957 29.0225L19.1045 29.0264C21.3749 29.9877 24.1724 29.9165 26.4531 29.0693L26.4668 29.0645L26.4805 29.0576C27.239 28.668 27.5839 28.2468 28.0322 27.6006C28.2145 27.4558 28.225 27.4487 28.4297 27.2861L28.4482 27.2715L28.4639 27.2539C29.4335 26.1318 29.6064 24.5973 29.5605 23.2529V23.2412L29.5586 23.2305L29.5127 22.9268C29.4244 22.428 29.2777 21.962 29.1025 21.502L28.8809 20.9512C28.8338 20.8278 28.7867 20.7043 28.7383 20.5771L28.7363 20.5723C28.4326 19.8161 28.0595 19.348 27.4971 18.8145V18.1465Z" stroke="#3B82F6" stroke-width="0.5"/>
<path d="M27.4971 18.1465L27.3076 18.0986C27.137 18.0556 26.9666 18.0121 26.791 17.9678C26.4567 17.8424 26.3146 17.7881 26.1885 17.7129C26.0605 17.6365 25.9449 17.5362 25.6689 17.2949L25.666 17.292C24.9101 16.6517 23.9787 16.3494 23.0273 16.208C22.0778 16.067 21.0852 16.0831 20.1992 16.0967C19.9965 16.0961 19.7938 16.0963 19.585 16.0957H19.582C18.4749 16.1032 17.4791 16.2022 16.4004 16.4629C15.6431 16.6122 14.8841 16.6003 14.0771 16.5928H14.0732C13.9103 16.5943 13.7469 16.5951 13.5791 16.5967C12.5009 16.5932 11.659 16.4305 10.6914 15.9834C10.2699 15.5089 10.241 15.0038 10.252 14.2988C10.3424 13.485 10.474 12.8731 10.9424 12.252C11.572 11.823 12.052 11.6309 12.8096 11.6309H13.0596V11.1797C15.3687 10.4924 17.5035 10.2668 19.9414 10.2529C20.0947 10.252 20.2484 10.251 20.4062 10.25C22.4363 10.2558 24.2215 10.4601 26.126 11.1094L26.1289 11.1104C26.3096 11.1691 26.4906 11.2275 26.6768 11.2881C28.2465 11.8079 29.4577 12.4148 30.6953 13.457L30.6982 13.459C30.875 13.6034 30.8758 13.6039 31.0547 13.75V13.751C32.9274 15.3102 34.0047 17.0121 34.8848 19.2422V19.2432C34.936 19.3727 34.9872 19.5023 35.04 19.6357V19.6367C36.2026 22.6834 35.8482 26.0954 34.6133 29.0977C34.3792 29.5645 34.0566 29.9345 33.6777 30.3545L33.6602 30.375L33.6465 30.3984C33.5612 30.5485 33.4764 30.6992 33.3887 30.8535C32.9582 31.4928 32.4151 31.9372 31.7764 32.4551L31.7754 32.4561C31.5883 32.6093 31.5872 32.6093 31.3975 32.7646C30.4999 33.4854 29.5941 34.0577 28.5439 34.5498L28.5303 34.5566L28.5176 34.5645C28.2747 34.7167 28.2698 34.7202 28.0322 34.8691C26.5234 35.6693 25.0919 35.7724 23.3398 35.7471H22.6836C20.1428 35.7306 17.6249 35.15 15.4658 33.8594V33.4043L15.2568 33.3691C15.1472 33.3507 15.0375 33.3324 14.9248 33.3135C13.9338 33.0139 13.1813 32.1921 12.6387 31.3008C12.3651 30.3517 12.274 29.6217 12.6865 28.7549C12.8335 28.5711 12.8414 28.5628 13.0049 28.3584L13.0068 28.3555C13.0853 28.2546 13.1628 28.1531 13.2432 28.0498C13.6044 27.8013 14.0818 27.6726 14.6055 27.625C15.1307 27.5773 15.6815 27.6128 16.1641 27.6738C16.7246 27.8585 17.2526 28.1017 17.7871 28.3643L18.333 28.6357L18.7393 28.8369C18.9094 28.9251 18.9108 28.9262 19.0869 29.0176L19.0957 29.0225L19.1045 29.0264C21.3749 29.9877 24.1724 29.9165 26.4531 29.0693L26.4668 29.0645L26.4805 29.0576C27.239 28.668 27.5839 28.2468 28.0322 27.6006C28.2145 27.4558 28.225 27.4487 28.4297 27.2861L28.4482 27.2715L28.4639 27.2539C29.4335 26.1318 29.6064 24.5973 29.5605 23.2529V23.2412L29.5586 23.2305L29.5127 22.9268C29.4244 22.428 29.2777 21.962 29.1025 21.502L28.8809 20.9512C28.8338 20.8278 28.7867 20.7043 28.7383 20.5771L28.7363 20.5723C28.4326 19.8161 28.0595 19.348 27.4971 18.8145V18.1465Z" stroke="#002885" stroke-width="0.5"/>
<path d="M12.9355 0.25C14.0217 0.254166 14.9136 0.361767 15.9092 0.743164L15.9121 0.744141C16.3245 0.895815 16.7246 0.984632 17.1367 1.06934C17.8521 1.26912 18.1391 1.49897 18.7373 1.9873L18.7637 2.00781L18.793 2.02148C19.083 2.15192 19.3765 2.27458 19.6709 2.39258V2.39355C20.401 2.69781 20.8755 3.03372 21.3818 3.63184C21.6589 4.47952 21.6455 5.34675 21.4316 6.23145C21.0814 6.79085 20.6082 7.14512 19.9863 7.45605C18.3454 7.61322 17.1191 7.60414 15.8193 6.64453L15.8125 6.63867L15.8047 6.63379C14.6461 5.90023 13.3931 5.85769 12.1387 5.85547H12.1396C11.9192 5.84848 11.919 5.84893 11.6943 5.8418V5.84082H11.6875C9.85707 5.83159 8.5584 6.68607 7.30078 7.85352L7.28516 7.86914C6.16259 9.11531 5.96525 10.5468 5.98047 12.0459L5.99805 12.6924L5.99902 12.7031C6.07875 13.6281 6.20864 14.5679 6.67188 15.4424L6.70117 15.499L6.75488 15.5342C6.93065 15.6495 7.10686 15.7645 7.28711 15.8828C7.36511 16.0154 7.44311 16.1486 7.52344 16.2852L7.52734 16.292C8.17849 17.3274 9.09873 17.767 10.1533 18.1777C10.3599 18.2592 10.5664 18.3409 10.7793 18.4248L10.7812 18.4258C10.9474 18.4894 10.9966 18.5079 11.0957 18.5459V19.001L11.3408 19.0059L13.6035 19.0371C13.9812 19.0413 14.3593 19.0483 14.7383 19.0557H14.7412C16.222 19.0668 17.5284 18.9254 18.9648 18.5605C19.5422 18.4251 20.1036 18.3601 20.6865 18.3369L21.2793 18.3262C21.4998 18.3262 21.5024 18.3261 21.7227 18.3262L22.0879 18.3457C22.4355 18.3733 22.733 18.4274 23.0088 18.5244C23.369 18.6512 23.7055 18.8566 24.0723 19.1924C24.3631 19.544 24.5307 19.8148 24.627 20.0967C24.7225 20.3764 24.7538 20.6854 24.748 21.123C24.5713 21.8834 24.0067 22.3314 23.3672 22.9609L23.3516 22.9756L23.3389 22.9932C23.2473 23.1214 23.1557 23.25 23.0615 23.3818C22.6675 23.8655 22.0534 24.1102 21.3359 24.248C20.6071 24.388 19.8642 24.4062 19.1709 24.4893C17.0658 24.7053 14.6869 24.8649 12.3936 24.6436C10.2425 24.4359 8.18406 23.895 6.50098 22.7666L6.16992 22.5332C6.05331 22.4383 5.93655 22.3429 5.81641 22.2451C5.6591 22.111 5.5634 22.0291 5.44531 21.9541C5.33197 21.8821 5.19985 21.8167 4.97461 21.707C4.27525 21.2449 3.78668 20.6113 3.21191 19.9287L3.20801 19.9248L2.92676 19.6045H2.92773C2.44701 19.0543 2.05004 18.5001 1.68848 17.8691L1.68457 17.8623L1.68066 17.8564L1.37891 17.3926C-0.0374692 14.8948 0.0339794 11.2964 0.743164 8.53418C1.57599 5.67509 3.67461 3.24422 6.24805 1.64648C8.09577 0.693433 9.87361 0.283725 11.9209 0.256836H12.3398C12.5363 0.254636 12.7332 0.252266 12.9355 0.25Z" fill="#E8F0FF" stroke="#3B82F6" stroke-width="0.5"/>
<path d="M56.17 30.36C54.61 30.36 53.15 30.08 51.79 29.52C50.45 28.94 49.27 28.14 48.25 27.12C47.23 26.08 46.43 24.86 45.85 23.46C45.27 22.04 44.98 20.49 44.98 18.81C44.98 17.13 45.27 15.59 45.85 14.19C46.43 12.77 47.23 11.55 48.25 10.53C49.27 9.49 50.45 8.69 51.79 8.13C53.15 7.57 54.61 7.29 56.17 7.29C57.73 7.29 59.18 7.58 60.52 8.16C61.88 8.72 63.07 9.52 64.09 10.56C65.11 11.58 65.91 12.79 66.49 14.19C67.07 15.59 67.36 17.13 67.36 18.81C67.36 20.49 67.07 22.04 66.49 23.46C65.91 24.86 65.11 26.08 64.09 27.12C63.07 28.14 61.88 28.94 60.52 29.52C59.18 30.08 57.73 30.36 56.17 30.36ZM56.17 28.11C57.47 28.11 58.65 27.87 59.71 27.39C60.79 26.91 61.72 26.24 62.5 25.38C63.28 24.52 63.88 23.53 64.3 22.41C64.74 21.29 64.96 20.09 64.96 18.81C64.96 17.55 64.74 16.36 64.3 15.24C63.88 14.12 63.28 13.13 62.5 12.27C61.72 11.41 60.79 10.74 59.71 10.26C58.65 9.78 57.47 9.54 56.17 9.54C54.87 9.54 53.68 9.78 52.6 10.26C51.54 10.74 50.62 11.41 49.84 12.27C49.06 13.13 48.45 14.12 48.01 15.24C47.59 16.36 47.38 17.55 47.38 18.81C47.38 20.09 47.59 21.29 48.01 22.41C48.45 23.53 49.06 24.52 49.84 25.38C50.62 26.24 51.55 26.91 52.63 27.39C53.71 27.87 54.89 28.11 56.17 28.11ZM73.2979 30V16.17H70.0879V13.92H73.2979V12.48C73.2979 11.36 73.5479 10.42 74.0479 9.66C74.5479 8.88 75.2079 8.29 76.0279 7.89C76.8479 7.49 77.7279 7.29 78.6679 7.29C78.8679 7.29 79.0979 7.31 79.3579 7.35C79.6179 7.37 79.8279 7.4 79.9879 7.44V9.48C79.8479 9.44 79.6579 9.42 79.4179 9.42C79.1779 9.4 79.0079 9.39 78.9079 9.39C77.9479 9.39 77.1479 9.62 76.5079 10.08C75.8679 10.54 75.5479 11.34 75.5479 12.48V13.92H84.5779V16.17H75.5479V30H73.2979ZM94.1779 30V13.92H96.4279V30H94.1779ZM84.7879 30V16.17H81.5779V13.92H84.7879V12.48C84.7879 11.36 85.0379 10.42 85.5379 9.66C86.0379 8.88 86.6979 8.29 87.5179 7.89C88.3379 7.49 89.2179 7.29 90.1579 7.29C90.3579 7.29 90.5879 7.31 90.8479 7.35C91.1079 7.37 91.3179 7.4 91.4779 7.44V9.48C91.3379 9.44 91.1479 9.42 90.9079 9.42C90.6679 9.4 90.4979 9.39 90.3979 9.39C89.4379 9.39 88.6379 9.62 87.9979 10.08C87.3579 10.54 87.0379 11.34 87.0379 12.48V13.92H96.0679V16.17H87.0379V30H84.7879ZM107.943 30.36C106.363 30.36 104.973 29.99 103.773 29.25C102.573 28.51 101.633 27.51 100.953 26.25C100.273 24.97 99.9332 23.53 99.9332 21.93C99.9332 20.33 100.273 18.9 100.953 17.64C101.633 16.38 102.573 15.39 103.773 14.67C104.973 13.93 106.363 13.56 107.943 13.56C108.943 13.56 109.883 13.74 110.763 14.1C111.643 14.46 112.423 14.95 113.103 15.57C113.783 16.17 114.293 16.87 114.633 17.67L112.593 18.72C112.193 17.86 111.583 17.16 110.763 16.62C109.943 16.08 109.003 15.81 107.943 15.81C106.883 15.81 105.923 16.08 105.063 16.62C104.223 17.14 103.553 17.87 103.053 18.81C102.573 19.73 102.333 20.78 102.333 21.96C102.333 23.12 102.573 24.17 103.053 25.11C103.553 26.03 104.223 26.76 105.063 27.3C105.923 27.84 106.883 28.11 107.943 28.11C109.003 28.11 109.933 27.84 110.733 27.3C111.553 26.76 112.173 26.04 112.593 25.14L114.633 26.25C114.293 27.03 113.783 27.73 113.103 28.35C112.423 28.97 111.643 29.46 110.763 29.82C109.883 30.18 108.943 30.36 107.943 30.36ZM125.901 30.36C124.401 30.36 123.041 30 121.821 29.28C120.621 28.54 119.671 27.53 118.971 26.25C118.271 24.97 117.921 23.52 117.921 21.9C117.921 20.28 118.261 18.85 118.941 17.61C119.621 16.35 120.541 15.36 121.701 14.64C122.881 13.92 124.201 13.56 125.661 13.56C126.821 13.56 127.851 13.78 128.751 14.22C129.671 14.64 130.451 15.22 131.091 15.96C131.731 16.68 132.221 17.5 132.561 18.42C132.901 19.32 133.071 20.25 133.071 21.21C133.071 21.41 133.061 21.64 133.041 21.9C133.021 22.14 132.991 22.39 132.951 22.65H119.361V20.55H131.661L130.581 21.45C130.761 20.35 130.631 19.37 130.191 18.51C129.771 17.63 129.161 16.94 128.361 16.44C127.561 15.92 126.661 15.66 125.661 15.66C124.661 15.66 123.731 15.92 122.871 16.44C122.031 16.96 121.371 17.69 120.891 18.63C120.411 19.55 120.221 20.65 120.321 21.93C120.221 23.21 120.421 24.33 120.921 25.29C121.441 26.23 122.141 26.96 123.021 27.48C123.921 28 124.881 28.26 125.901 28.26C127.081 28.26 128.071 27.98 128.871 27.42C129.671 26.86 130.321 26.16 130.821 25.32L132.741 26.34C132.421 27.06 131.931 27.73 131.271 28.35C130.611 28.95 129.821 29.44 128.901 29.82C128.001 30.18 127.001 30.36 125.901 30.36ZM144.899 30.36C143.479 30.36 142.189 30.09 141.029 29.55C139.869 29.01 138.889 28.29 138.089 27.39C137.289 26.47 136.719 25.46 136.379 24.36L138.539 23.55C139.059 25.07 139.869 26.23 140.969 27.03C142.069 27.81 143.379 28.2 144.899 28.2C145.859 28.2 146.699 28.05 147.419 27.75C148.159 27.43 148.729 26.99 149.129 26.43C149.529 25.87 149.729 25.22 149.729 24.48C149.729 23.38 149.429 22.53 148.829 21.93C148.229 21.33 147.369 20.87 146.249 20.55L142.229 19.35C140.649 18.89 139.429 18.12 138.569 17.04C137.729 15.96 137.309 14.73 137.309 13.35C137.309 12.17 137.599 11.13 138.179 10.23C138.759 9.31 139.549 8.59 140.549 8.07C141.569 7.55 142.719 7.29 143.999 7.29C145.339 7.29 146.539 7.54 147.599 8.04C148.679 8.52 149.589 9.16 150.329 9.96C151.069 10.76 151.599 11.65 151.919 12.63L149.819 13.47C149.339 12.15 148.589 11.15 147.569 10.47C146.569 9.79 145.389 9.45 144.029 9.45C143.169 9.45 142.409 9.6 141.749 9.9C141.109 10.2 140.609 10.63 140.249 11.19C139.889 11.75 139.709 12.41 139.709 13.17C139.709 14.09 139.999 14.92 140.579 15.66C141.159 16.38 142.049 16.92 143.249 17.28L146.789 18.33C148.549 18.85 149.879 19.6 150.779 20.58C151.679 21.56 152.129 22.79 152.129 24.27C152.129 25.47 151.819 26.53 151.199 27.45C150.599 28.35 149.749 29.06 148.649 29.58C147.569 30.1 146.319 30.36 144.899 30.36ZM156.763 36.6C156.443 36.6 156.113 36.57 155.773 36.51C155.453 36.47 155.133 36.39 154.813 36.27V34.17C155.013 34.19 155.263 34.22 155.563 34.26C155.883 34.32 156.203 34.35 156.523 34.35C157.503 34.35 158.253 34.14 158.773 33.72C159.293 33.32 159.803 32.54 160.303 31.38L161.323 28.98L161.263 30.96L154.453 13.92H156.883L162.463 27.99H161.833L167.383 13.92H169.873L162.523 32.04C162.203 32.82 161.793 33.56 161.293 34.26C160.813 34.96 160.203 35.52 159.463 35.94C158.723 36.38 157.823 36.6 156.763 36.6ZM172.517 30V13.92H174.767V17.04L174.257 16.92C174.657 15.88 175.307 15.06 176.207 14.46C177.127 13.86 178.187 13.56 179.387 13.56C180.527 13.56 181.547 13.82 182.447 14.34C183.367 14.86 184.087 15.58 184.607 16.5C185.147 17.4 185.417 18.42 185.417 19.56V30H183.167V20.43C183.167 19.45 182.987 18.62 182.627 17.94C182.287 17.26 181.797 16.74 181.157 16.38C180.537 16 179.817 15.81 178.997 15.81C178.177 15.81 177.447 16 176.807 16.38C176.167 16.74 175.667 17.27 175.307 17.97C174.947 18.65 174.767 19.47 174.767 20.43V30H172.517ZM197.064 30.36C195.484 30.36 194.094 29.99 192.894 29.25C191.694 28.51 190.754 27.51 190.074 26.25C189.394 24.97 189.054 23.53 189.054 21.93C189.054 20.33 189.394 18.9 190.074 17.64C190.754 16.38 191.694 15.39 192.894 14.67C194.094 13.93 195.484 13.56 197.064 13.56C198.064 13.56 199.004 13.74 199.884 14.1C200.764 14.46 201.544 14.95 202.224 15.57C202.904 16.17 203.414 16.87 203.754 17.67L201.714 18.72C201.314 17.86 200.704 17.16 199.884 16.62C199.064 16.08 198.124 15.81 197.064 15.81C196.004 15.81 195.044 16.08 194.184 16.62C193.344 17.14 192.674 17.87 192.174 18.81C191.694 19.73 191.454 20.78 191.454 21.96C191.454 23.12 191.694 24.17 192.174 25.11C192.674 26.03 193.344 26.76 194.184 27.3C195.044 27.84 196.004 28.11 197.064 28.11C198.124 28.11 199.054 27.84 199.854 27.3C200.674 26.76 201.294 26.04 201.714 25.14L203.754 26.25C203.414 27.03 202.904 27.73 202.224 28.35C201.544 28.97 200.764 29.46 199.884 29.82C199.004 30.18 198.064 30.36 197.064 30.36Z" fill="#E8F0FF"/>
</svg>
